<?xml version="1.0" standalone="no"?>
<!DOCTYPE svg PUBLIC "-//W3C//DTD SVG 20010904//EN"
 "http://www.w3.org/TR/2001/REC-SVG-20010904/DTD/svg10.dtd">
<svg version="1.0" xmlns="http://www.w3.org/2000/svg"
 width="472.000000pt" height="472.000000pt" viewBox="0 0 472.000000 472.000000"
 preserveAspectRatio="xMidYMid meet">
<metadata>
Created by potrace 1.11, written by Peter Selinger 2001-2013
</metadata>
<g transform="translate(0.000000,472.000000) scale(0.100000,-0.100000)"
fill="#000000" stroke="none">
<path d="M2154 4579 c-28 -4 -79 -9 -113 -13 -33 -4 -66 -8 -73 -11 -7 -2 -29
-6 -48 -9 -141 -21 -514 -153 -610 -216 -14 -9 -56 -34 -95 -54 -38 -21 -72
-41 -75 -45 -3 -3 -25 -20 -50 -36 -75 -50 -172 -127 -230 -182 l-55 -52 92
-93 c51 -51 222 -225 381 -387 l289 -294 40 36 c119 111 344 227 488 252 17 2
41 7 55 10 14 4 60 9 103 12 46 3 77 10 77 17 1 15 1 970 0 1029 l0 48 -62 -3
c-35 -2 -86 -6 -114 -9z"/>
<path d="M2374 4500 c0 -52 1 -74 3 -47 2 26 2 68 0 95 -2 26 -3 4 -3 -48z"/>
<path d="M2419 4478 c-1 -62 -2 -151 -4 -198 -1 -47 -5 -233 -9 -415 -4 -181
-9 -331 -11 -334 -12 -11 21 -31 50 -31 18 0 69 -7 113 -15 232 -44 447 -158
602 -317 l25 -26 25 20 c14 11 63 55 110 97 47 43 105 95 130 117 25 21 50 44
55 50 8 8 147 133 221 199 6 6 47 42 90 81 44 39 100 89 126 110 26 21 47 44
47 50 1 16 -173 180 -269 254 -25 19 -47 37 -50 40 -5 6 -80 55 -170 112 -240
151 -625 280 -904 303 -33 3 -87 8 -118 11 l-58 5 -1 -113z"/>
<path d="M711 3869 c-276 -304 -473 -697 -546 -1085 -23 -124 -24 -134 -31
-214 -24 -269 -9 -442 71 -810 7 -29 62 -190 82 -237 7 -18 13 -35 13 -38 1
-13 119 -239 159 -304 49 -78 208 -281 288 -367 97 -104 311 -278 418 -339 28
-16 52 -32 55 -36 3 -4 13 -9 23 -11 19 -3 27 11 155 242 19 36 45 83 58 105
158 284 204 368 204 371 0 3 11 21 23 42 48 75 97 176 90 182 -5 4 -39 28 -78
55 -38 27 -106 85 -151 129 -391 392 -445 992 -131 1456 28 41 66 89 85 107
19 18 32 37 30 42 -4 14 -749 771 -757 770 -3 0 -30 -27 -60 -60z"/>
<path d="M3984 3803 c-21 -19 -55 -49 -74 -67 -19 -17 -84 -76 -145 -130 -60
-55 -114 -104 -120 -110 -5 -6 -71 -65 -145 -131 -74 -66 -155 -138 -180 -161
-25 -23 -58 -53 -74 -66 l-30 -25 47 -63 c89 -118 159 -263 197 -406 26 -101
33 -163 33 -286 0 -92 2 -108 16 -109 9 0 25 -2 36 -3 30 -4 124 -15 270 -32
72 -8 148 -17 170 -19 22 -3 118 -14 213 -25 95 -11 216 -25 268 -32 52 -6 96
-9 98 -7 15 16 22 299 11 419 -24 256 -82 477 -188 720 -37 86 -152 298 -167
310 -4 3 -25 32 -47 65 -23 34 -65 90 -95 127 l-54 66 -40 -35z"/>
<path d="M3491 2196 c-4 -6 -8 -18 -8 -26 0 -8 -10 -55 -23 -105 -65 -259
-250 -513 -485 -666 -55 -36 -116 -71 -135 -79 -19 -7 -39 -17 -44 -22 -6 -4
-18 -8 -27 -8 -10 0 -21 -5 -24 -10 -3 -6 28 -112 69 -238 41 -125 116 -352
166 -505 58 -177 96 -277 104 -277 38 0 289 117 428 199 281 166 540 424 735
731 47 74 153 281 153 299 0 6 6 22 14 34 38 58 128 391 140 514 4 38 2 44
-17 48 -12 2 -240 29 -507 60 -267 30 -495 57 -507 59 -13 2 -27 -2 -32 -8z"/>
<path d="M1628 1001 c-105 -190 -201 -364 -213 -386 -94 -169 -115 -208 -115
-215 0 -9 212 -110 232 -110 8 0 18 -4 24 -9 16 -15 226 -79 329 -100 175 -35
275 -45 470 -45 198 0 256 5 390 30 101 19 267 63 278 73 4 5 -62 219 -147
478 -86 258 -156 472 -156 475 0 3 -7 22 -15 42 -14 32 -17 35 -40 26 -13 -5
-66 -17 -117 -26 -221 -38 -482 -5 -670 86 l-58 28 -192 -347z"/>
</g>
</svg>
